# xmcd
#
# Track frame offsets: 
#        150
#        22592
#        45702
#        59667
#        86277
#        109350
#        128155
#        143957
#        164627
#        175820
#        194375
#        218615
#
# Disc length: 3046 seconds
#
# Revision: 2
# Processed by: cddbd v1.5.2PL0 Copyright (c) Steve Scherf et al.
# Submitted via: ExactAudioCopy v1.0b3
#
DISCID=a60be40c
DTITLE=真島昌利 - 人にはそれぞれ事情がある
DYEAR=1994
DGENRE=Japanese Rock
TTITLE0=月のウサギ,太陽のカラス
TTITLE1=空席
TTITLE2=アイスキャンディー
TTITLE3=ロマンス
TTITLE4=二人の夏の日
TTITLE5=カーニバル
TTITLE6=ジャングルの掟
TTITLE7=カレーライスにゃかなわない
TTITLE8=MR.SPEED
TTITLE9=世界を笑う男
TTITLE10=ドーパミンBABY
TTITLE11=月のウサギ,太陽のカラス
EXTD=
EXTT0=
EXTT1=
EXTT2=
EXTT3=
EXTT4=
EXTT5=
EXTT6=
EXTT7=
EXTT8=
EXTT9=
EXTT10=
EXTT11=
PLAYORDER=
